<?xml version="1.0" standalone="no"?>
<!DOCTYPE svg PUBLIC "-//W3C//DTD SVG 20010904//EN"
 "http://www.w3.org/TR/2001/REC-SVG-20010904/DTD/svg10.dtd">
<svg version="1.0" xmlns="http://www.w3.org/2000/svg"
 width="1200.000000pt" height="1200.000000pt" viewBox="0 0 1200.000000 1200.000000"
 preserveAspectRatio="xMidYMid meet">
<metadata>
Created by potrace 1.11, written by Peter Selinger 2001-2013
</metadata>
<g transform="translate(0.000000,1200.000000) scale(0.100000,-0.100000)"
fill="#000000" stroke="none">
<path d="M3397 9312 c-133 -33 -216 -81 -317 -182 -88 -88 -133 -161 -176
-290 -29 -84 -26 -281 5 -375 72 -220 227 -379 437 -451 88 -30 141 -36 322
-37 78 0 142 -1 142 -3 0 -5 -60 -140 -70 -156 -5 -10 -10 -23 -10 -29 0 -6
-6 -25 -14 -42 -29 -65 -89 -264 -101 -336 -3 -19 -7 -37 -9 -40 -2 -3 -7 -31
-11 -61 -4 -30 -9 -58 -11 -61 -24 -40 -23 -613 1 -699 3 -8 7 -31 9 -50 19
-149 105 -433 176 -586 22 -48 40 -87 40 -88 0 -1 -56 -3 -125 -4 -69 0 -129
-3 -134 -6 -5 -3 -25 -8 -46 -12 -20 -3 -55 -12 -78 -20 -42 -15 -168 -81
-177 -93 -3 -3 -23 -21 -45 -40 -266 -227 -307 -639 -91 -920 106 -137 280
-239 441 -259 67 -8 4905 -8 4975 0 263 31 482 220 565 488 29 94 24 309 -9
395 -2 5 -4 13 -5 18 0 4 -13 31 -27 60 -103 203 -280 339 -494 377 -35 6
-133 12 -217 13 -84 0 -153 2 -153 3 0 2 18 43 39 93 92 208 141 377 186 636
27 161 27 511 -1 695 -30 205 -85 397 -169 595 -26 61 -49 115 -51 121 -3 7
29 11 98 11 213 2 352 48 488 162 128 107 200 228 234 394 26 128 1 310 -58
426 -77 147 -236 288 -377 335 -128 41 -43 40 -2623 41 l-2468 0 -91 -23z
m292 -182 c192 -58 334 -217 357 -400 5 -41 5 -150 0 -159 -3 -4 -8 -22 -11
-39 -11 -67 -60 -147 -130 -218 -56 -56 -137 -111 -175 -119 -3 0 -29 -7 -59
-14 -270 -67 -545 113 -597 390 -8 45 -7 175 1 189 3 6 9 23 11 38 7 40 69
147 111 193 120 130 328 189 492 139z m2561 5 c276 -35 499 -100 735 -215 524
-256 936 -711 1132 -1250 19 -52 36 -103 38 -112 2 -9 13 -50 24 -90 22 -81
47 -211 57 -303 4 -33 8 -73 10 -90 6 -47 5 -305 0 -360 -13 -117 -18 -155
-37 -250 -11 -55 -25 -114 -30 -131 -5 -17 -11 -40 -14 -50 -11 -53 -80 -235
-130 -341 l-56 -120 -655 0 c-360 0 -653 1 -652 3 2 1 32 23 68 49 59 43 221
199 261 251 97 126 183 302 223 456 89 344 26 717 -173 1021 -59 90 -215 251
-316 326 -81 60 -234 137 -350 176 -173 57 -186 58 -1315 60 -569 2 -1037 3
-1039 4 -2 0 7 12 21 24 61 57 122 161 158 272 25 73 33 223 18 311 -19 110
-82 240 -158 327 l-42 47 1058 -1 c807 -1 1084 -4 1164 -14z m2215 2 c131 -34
261 -140 320 -261 43 -87 55 -146 51 -251 -8 -178 -118 -338 -287 -414 -85
-38 -125 -44 -307 -46 l-154 -1 -69 102 c-130 190 -324 400 -499 536 -41 32
-83 65 -93 73 -9 8 -19 15 -22 15 -2 0 -33 20 -68 45 -36 25 -68 45 -73 45 -4
0 -15 7 -24 15 -8 8 -78 46 -155 84 l-140 71 745 -3 c410 -1 759 -6 775 -10z
m-3137 -1163 c-2 -1 -32 -23 -68 -50 -201 -147 -371 -373 -454 -602 -73 -204
-92 -482 -46 -682 6 -25 10 -47 10 -50 -3 -13 66 -192 96 -253 32 -63 100
-176 113 -187 3 -3 18 -21 32 -40 25 -34 122 -131 184 -185 52 -45 187 -130
269 -169 115 -56 269 -98 411 -113 33 -4 518 -7 1077 -7 902 -1 1015 -3 1005
-16 -6 -8 -26 -31 -43 -51 -43 -50 -97 -150 -125 -234 -20 -59 -24 -89 -23
-195 0 -109 4 -135 27 -202 33 -93 80 -176 137 -241 l42 -48 -1103 4 c-607 2
-1122 7 -1144 11 -22 4 -78 14 -125 22 -346 61 -658 197 -953 417 -173 129
-362 320 -477 483 -209 297 -346 628 -395 959 -4 22 -8 51 -11 65 -7 46 -18
214 -17 295 0 94 10 273 16 283 3 4 7 30 11 59 3 28 8 57 10 65 3 7 8 30 11
52 3 21 7 42 10 46 2 3 7 21 10 38 15 85 97 307 167 448 l40 81 654 0 c360 0
653 -1 652 -3z m822 -8 c272 -40 517 -179 684 -386 193 -237 277 -542 232
-837 -36 -239 -133 -429 -306 -603 -164 -165 -387 -278 -605 -307 -68 -9 -262
-9 -315 -1 -449 72 -802 406 -896 846 -31 148 -24 406 15 505 6 15 7 27 4 27
-4 0 -2 5 5 12 7 7 12 19 12 28 0 29 109 234 159 301 104 136 265 262 421 330
103 44 220 78 297 86 32 3 59 6 61 8 4 4 195 -3 232 -9z m-2243 -2335 c6 0 37
-40 69 -88 232 -352 570 -644 967 -838 l112 -55 -725 0 c-612 0 -735 3 -789
15 -161 38 -291 153 -351 310 -34 88 -37 227 -7 315 59 175 208 306 382 337
17 3 31 6 32 6 2 2 292 0 310 -2z m4624 -7 c57 -10 72 -15 148 -52 98 -46 211
-195 240 -317 59 -242 -85 -497 -329 -581 -69 -24 -222 -25 -295 -2 -153 48
-278 173 -325 327 -110 351 197 692 561 625z"/>
<path d="M7840 3444 c-92 -40 -143 -143 -143 -288 0 -113 21 -180 73 -240 88
-100 256 -81 323 36 54 95 63 259 20 365 -48 118 -166 173 -273 127z m133 -94
c63 -50 85 -237 38 -333 -39 -81 -102 -98 -156 -44 -50 50 -68 178 -41 295 19
82 103 126 159 82z"/>
<path d="M3194 3423 c9 -51 25 -157 31 -208 3 -27 8 -57 10 -65 2 -8 7 -37 10
-65 4 -27 9 -66 12 -85 2 -19 8 -57 11 -85 l7 -50 40 -3 41 -3 28 138 c16 76
30 143 31 148 1 6 6 29 10 53 10 55 18 44 34 -43 7 -38 21 -106 31 -150 11
-44 21 -93 23 -110 3 -27 7 -30 45 -33 29 -2 42 1 43 10 0 7 2 24 5 38 5 33
24 157 30 195 2 17 6 41 9 55 2 14 7 48 10 75 3 28 8 57 10 65 2 8 6 38 10 65
3 28 8 58 11 68 5 15 -2 17 -44 17 l-50 0 -11 -92 c-6 -51 -14 -120 -17 -153
-16 -151 -17 -151 -47 -5 -16 74 -30 142 -31 150 -2 8 -7 34 -11 58 -6 38 -9
42 -36 42 -16 0 -29 -3 -29 -6 0 -4 -12 -63 -26 -133 -33 -162 -30 -149 -40
-201 l-8 -45 -7 40 c-4 22 -10 63 -14 90 -3 28 -8 57 -10 65 -2 8 -7 42 -10
75 -3 33 -8 69 -10 80 -2 11 -4 23 -4 28 -1 4 -21 7 -46 7 -44 0 -45 -1 -41
-27z"/>
<path d="M3939 3168 c-50 -156 -94 -289 -96 -295 -4 -10 10 -13 51 -13 l55 0
11 43 c23 90 19 87 119 87 99 0 91 6 121 -92 11 -38 12 -38 65 -38 l54 0 -26
78 c-14 42 -39 117 -55 167 -17 49 -31 94 -32 100 -1 5 -20 63 -41 128 l-39
117 -47 0 -48 0 -92 -282z m174 22 c15 -53 27 -99 27 -103 0 -4 -29 -7 -64 -7
l-64 0 24 78 c14 42 27 92 31 110 8 45 16 33 46 -78z"/>
<path d="M4524 3155 l0 -297 145 4 c133 3 149 5 184 27 93 57 103 207 18 259
l-31 19 21 19 c51 46 62 110 30 180 -30 65 -76 82 -236 83 l-131 2 0 -296z
m266 180 c40 -36 15 -106 -43 -120 -13 -4 -46 -5 -73 -3 l-49 3 -1 65 c0 36 1
69 4 73 2 4 35 6 73 4 48 -2 74 -9 89 -22z m-3 -224 c1 -1 10 -10 21 -21 28
-30 27 -85 -1 -114 -20 -20 -34 -23 -100 -25 -57 -2 -77 1 -79 11 -1 7 -2 46
-2 86 l-1 73 80 -5 c44 -2 81 -5 82 -5z"/>
<path d="M5258 3288 c-28 -90 -53 -167 -54 -173 -1 -5 -21 -64 -43 -130 -23
-65 -41 -120 -41 -122 0 -2 25 -3 55 -3 30 0 55 5 55 10 0 15 0 15 20 67 l18
48 96 3 c53 1 95 -1 94 -5 -1 -4 6 -34 15 -65 l18 -58 54 0 54 0 -25 73 c-14
39 -26 77 -28 82 -1 6 -33 106 -71 223 l-69 212 -48 0 -47 0 -53 -162z m129
-76 c13 -42 26 -89 29 -104 l7 -28 -65 0 -65 0 31 109 c17 60 33 107 35 105 3
-3 15 -39 28 -82z"/>
<path d="M6418 3415 c-6 -54 1 -59 92 -57 79 2 81 1 80 -20 -1 -13 -2 -125 -1
-250 l1 -228 50 0 50 0 0 251 0 250 48 -1 c26 -1 64 -1 85 -1 l37 1 0 45 0 45
-219 0 -219 0 -4 -35z"/>
<path d="M7084 3158 l1 -293 50 -3 50 -3 0 113 0 113 35 3 35 2 55 -112 55
-113 58 -3 58 -3 -60 119 -60 119 37 24 c54 35 84 100 79 166 -7 69 -32 111
-86 140 -40 21 -57 23 -176 23 l-132 0 1 -292z m267 172 c17 -17 25 -35 24
-55 -4 -77 -34 -98 -131 -93 l-59 3 -1 80 c0 44 1 83 3 87 2 4 34 7 71 6 57
-2 71 -6 93 -28z"/>
<path d="M8364 3155 l0 -295 46 0 46 0 0 195 c-1 145 2 191 10 182 7 -7 53
-94 104 -194 l92 -183 44 0 c43 0 44 1 45 33 0 17 1 149 1 292 l1 260 -47 3
-46 3 0 -191 c1 -106 0 -194 -2 -196 -2 -2 -48 84 -101 191 l-97 195 -48 0
-48 0 0 -295z"/>
<path d="M5800 3105 l0 -45 198 0 198 0 -1 43 0 42 -197 3 -198 2 0 -45z"/>
</g>
</svg>
